<svg xmlns="http://www.w3.org/2000/svg" width="471.186" height="138.432" viewBox="0 0 471.186 138.432">
  <path id="could" d="M470.159,138.432.006,138.362V136.09c-.16-11.735,3.154-21.134,9.849-27.935a39.308,39.308,0,0,1,17.207-9.832,63.068,63.068,0,0,1,17.484-2.417,48.788,48.788,0,0,1,8.246.613,60.447,60.447,0,0,1,11.86-20.6,55.179,55.179,0,0,1,16.49-12.508c10.413-5.223,23.169-7.871,37.912-7.871a152.268,152.268,0,0,1,29.855,3.185,78.813,78.813,0,0,1,13.647-21.239,98.368,98.368,0,0,1,22.858-18.847A123.191,123.191,0,0,1,217.819,5.156,166.477,166.477,0,0,1,260.109,0c1.254,0,2.533.012,3.8.036A105.589,105.589,0,0,1,307,9.195a122.832,122.832,0,0,1,31.112,20.148,143.637,143.637,0,0,1,18.863,20.148,98.48,98.48,0,0,1,6.347,9.158l.006-.005a40.43,40.43,0,0,1,7.745-3.388,69.678,69.678,0,0,1,22-3.392,96.481,96.481,0,0,1,34.376,6.785C439.827,64,449.773,71.517,457.013,81A68.021,68.021,0,0,1,469.15,107.33a84.307,84.307,0,0,1,1.965,21.932,64.885,64.885,0,0,1-.956,9.169h0ZM230.31,70.19a23.357,23.357,0,0,0,46.7,0h-46.7Zm86.48-16.445a24.635,24.635,0,0,0-24.547,22.77h6.324a18.315,18.315,0,0,1,36.445,0h6.325A24.658,24.658,0,0,0,316.79,53.745Zm-125,0a24.635,24.635,0,0,0-24.547,22.77h6.324a18.315,18.315,0,0,1,36.445,0h6.325a24.658,24.658,0,0,0-24.546-22.769Z" transform="translate(0 0)" fill="#fff"/>
</svg>
