<svg xmlns="http://www.w3.org/2000/svg" width="88" height="58" viewBox="0 0 88 58">
  <g id="email-green-darker" transform="translate(-6 -973.362)">
    <path id="Path_1" data-name="Path 1" d="M10,973.362a4.059,4.059,0,0,0-4,4v50a4.059,4.059,0,0,0,4,4H90a4.059,4.059,0,0,0,4-4v-50a4.059,4.059,0,0,0-4-4H10Zm2.594,6H87.406L50,1008.549,12.594,979.362ZM12,986.487l20.281,15.844-20.281,19V986.487Zm76,0v34.844l-20.281-19L88,986.487Zm-50.937,19.563,11.094,8.656a3,3,0,0,0,3.687,0l11.094-8.656,20.594,19.313H16.469l20.594-19.313Z" fill="#21564b"/>
  </g>
</svg>
