<svg xmlns="http://www.w3.org/2000/svg" xmlns:xlink="http://www.w3.org/1999/xlink" width="283" height="150" viewBox="0 0 283 150">
  <defs>
    <clipPath id="clip-path">
      <circle id="Ellipse_8" data-name="Ellipse 8" cx="75" cy="75" r="75" transform="translate(-0.1)"/>
    </clipPath>
  </defs>
  <g id="sean_design" transform="translate(-84 -63)">
    <g id="sean-halpin" transform="translate(84.1 63)">
      <circle id="oval2" cx="75" cy="75" r="75" transform="translate(-0.1)" fill="#f3f2f1"/>
      <g id="group" clip-path="url(#clip-path)">
        <g id="page1" transform="translate(17.089 21.395)">
          <g id="layer_1">
            <g id="layer_1_1_">
              <path id="bezier2" d="M87.4,233.976c5.906,2.211,7.065,13.687,2.585,25.638s-12.9,19.849-18.8,17.639S64.12,263.561,68.6,251.615,81.5,231.765,87.4,233.976Zm0,0" transform="translate(-47.783 -130.251)" fill="#f3c5ad"/>
              <path id="bezier" d="M85.45,313.56v9.132h60.509V313.56Zm0,0" transform="translate(-56.907 -167.508)"/>
              <path id="bezier3" d="M68.463,282.676c-.9-.593-.929-2.948-.123-5.436q-.136.3-.256.625c-1.036,2.713-1.084,5.436-.107,6.082s2.606-1.031,3.642-3.743c.08-.219.155-.433.224-.646-1.031,2.339-2.483,3.711-3.38,3.119Zm0,0" transform="translate(-48.437 -150.584)" fill="rgba(26,23,24,0.3)"/>
              <path id="bezier4" d="M167.184,221.976c-5.906,2.211-7.065,13.687-2.585,25.638s12.9,19.849,18.8,17.639,7.065-13.692,2.585-25.638S173.085,219.765,167.184,221.976Zm0,0" transform="translate(-92.518 -124.659)" fill="#f3c5ad"/>
              <path id="bezier5" d="M192.568,290.877c-1.746,0-3.177-2.681-3.4-6.157q-.032.449-.032.913c0,3.909,1.533,7.076,3.423,7.076s3.428-3.167,3.428-7.076c0-.31-.016-.614-.037-.913-.214,3.471-1.65,6.157-3.386,6.157Zm0,0" transform="translate(-105.225 -154.069)" fill="rgba(26,23,24,0.3)"/>
              <path id="bezier6" d="M146.687,235.45l-10.445-14.83-8.416,3.866-.748-2.44h-33.6l-.577,2.115-7.7-3.541L74.76,235.45l13.345,6.13L79.9,271.394h62.28l-9.089-29.7Zm0,0" transform="translate(-51.925 -124.2)" fill="#3aa488"/>
              <path id="bezier7" d="M133.633,235.745a9.7,9.7,0,1,0-9.7-9.7,9.7,9.7,0,0,0,9.7,9.7Zm0,0" transform="translate(-74.838 -122.21)" fill="#fff"/>
              <path id="bezier8" d="M135.113,236.422a7.454,7.454,0,1,0-7.973-7.439A7.719,7.719,0,0,0,135.113,236.422Zm0,0" transform="translate(-76.334 -124.633)" fill="#d5a691"/>
              <path id="bezier9" d="M39.706,154.826a7.7,7.7,0,1,0-7.706-7.7,7.7,7.7,0,0,0,7.706,7.7Zm0,0" transform="translate(-32 -86.362)" fill="#f3c5ad"/>
              <path id="bezier10" d="M227.846,154.826a7.7,7.7,0,1,0-7.706-7.7,7.7,7.7,0,0,0,7.706,7.7Zm0,0" transform="translate(-119.67 -86.362)" fill="#f3c5ad"/>
              <path id="bezier11" d="M96.989,165.883c28.217,0,51.089-17.884,51.089-39.939S125.207,86.01,96.989,86.01,45.9,103.889,45.9,125.944,68.772,165.883,96.989,165.883Zm0,0" transform="translate(-38.477 -61.474)" fill="#f3c5ad"/>
              <path id="bezier12" d="M81.767,155.909c0,4.982-3.962-6.4-8.849-6.4s-8.849,11.385-8.849,6.4a8.85,8.85,0,1,1,17.7,0Zm0,0" transform="translate(-46.944 -89.848)" fill="rgba(26,23,24,0.38)"/>
              <path id="bezier13" d="M208.972,155.909c0,4.982-3.962-6.4-8.849-6.4s-8.843,11.385-8.843,6.4a8.846,8.846,0,1,1,17.693,0Zm0,0" transform="translate(-106.222 -89.848)" fill="rgba(26,23,24,0.38)"/>
              <path id="bezier14" d="M195.779,133.483c6.328,0,11.508,4.352,11.951,9.874.021-.251.037-.507.037-.764,0-5.88-5.367-10.643-11.989-10.643s-11.989,4.763-11.989,10.643c0,.256.016.513.037.764.443-5.516,5.623-9.874,11.951-9.874Zm0,0" transform="translate(-102.732 -82.881)" fill="rgba(26,23,24,0.3)"/>
              <path id="bezier15" d="M69.643,133.483c6.333,0,11.513,4.352,11.957,9.874.016-.251.032-.507.032-.764,0-5.88-5.367-10.643-11.989-10.643S57.66,136.713,57.66,142.593c0,.256.011.513.032.764.443-5.516,5.623-9.874,11.951-9.874Zm0,0" transform="translate(-43.957 -82.881)" fill="rgba(26,23,24,0.3)"/>
              <path id="bezier16" d="M148,74.869c.048-.55.075-1.105.075-1.661,0-7.124-4.032-13.681-10.792-18.894-.817-.63,2.766-7.989,1.874-8.576-.758-.5-5.986,5.762-6.8,5.292-.39-.224-.79-.449-1.191-.662-1.485-.806.2-9.57-1.431-10.269-1.426-.609-6.157,6.841-7.69,6.317A78.673,78.673,0,0,0,96.979,42.47c-27.694,0-50.235,13.249-51.079,29.782H148v2.617Zm0,0" transform="translate(-38.477 -40.064)" fill="#eca042"/>
              <path id="bezier17" d="M148.079,98.83H45.9v31.945s33.355-10.531,44.468-14.045c6.964-2.2,27.838-8.79,27.838-8.79l29.873,22.835Zm0,0" transform="translate(-38.477 -67.448)" fill="#eca042"/>
              <path id="bezier18" d="M141.03,317.84v7.417h.571V317.84Zm0,0" transform="translate(-82.806 -169.503)" fill="#2c2723"/>
              <path id="bezier19" d="M139.612,170.477a2.854,2.854,0,0,1,2.8,2.286,2.854,2.854,0,1,0-5.591,0,2.853,2.853,0,0,1,2.793-2.286Zm0,0" transform="translate(-80.816 -100.304)" fill="rgba(26,23,24,0.3)"/>
              <path id="bezier20" d="M201.827,192.564a2,2,0,1,0-2-2A2,2,0,0,0,201.827,192.564Zm0,0" transform="translate(-110.206 -109.265)" fill="rgba(246,172,44,0.5)"/>
              <path id="bezier21" d="M209.234,198.829a.854.854,0,1,0-.854-.854A.854.854,0,0,0,209.234,198.829Zm0,0" transform="translate(-114.19 -113.249)" fill="rgba(246,172,44,0.5)"/>
              <path id="bezier22" d="M194.553,198.33a1.14,1.14,0,1,0-1.143-1.143A1.14,1.14,0,0,0,194.553,198.33Zm0,0" transform="translate(-107.214 -112.751)" fill="rgba(246,172,44,0.5)"/>
              <path id="bezier23" d="M200.113,198.751a.286.286,0,1,0-.283-.283.286.286,0,0,0,.283.283Zm0,0" transform="translate(-110.206 -113.743)" fill="rgba(246,172,44,0.5)"/>
              <path id="bezier24" d="M84.237,192.564a2,2,0,1,0-2-2A2,2,0,0,0,84.237,192.564Zm0,0" transform="translate(-55.411 -109.265)" fill="rgba(246,172,44,0.5)"/>
              <path id="bezier25" d="M91.65,198.829a.854.854,0,1,0-.86-.854A.854.854,0,0,0,91.65,198.829Zm0,0" transform="translate(-59.395 -113.249)" fill="rgba(246,172,44,0.5)"/>
              <path id="bezier26" d="M75.9,198.33a1.14,1.14,0,1,0-.809-.334,1.14,1.14,0,0,0,.809.334Zm0,0" transform="translate(-51.925 -112.751)" fill="rgba(246,172,44,0.5)"/>
              <path id="bezier27" d="M81.458,198.751a.285.285,0,1,0-.2-.082A.286.286,0,0,0,81.458,198.751Zm0,0" transform="translate(-54.912 -113.743)" fill="rgba(246,172,44,0.5)"/>
              <path id="bezier28" d="M65.766,182.16a15.43,15.43,0,0,0-11.316,4.929c4.854,8.534,13.4,15.481,24.036,19.6a15.62,15.62,0,0,0-12.72-24.533Zm0,0" transform="translate(-42.461 -106.278)" fill="rgba(7,7,6,0.05)"/>
              <path id="bezier29" d="M193.963,182.16a15.43,15.43,0,0,1,11.316,4.929c-4.854,8.534-13.4,15.481-24.036,19.6a15.62,15.62,0,0,1,12.72-24.533Zm0,0" transform="translate(-100.243 -106.278)" fill="rgba(7,7,6,0.05)"/>
              <path id="bezier30" d="M71.979,332.514a2.061,2.061,0,1,0-2.569-2,2.335,2.335,0,0,0,2.569,2Zm0,0" transform="translate(-49.432 -174.48)" fill="#2c2723"/>
              <path id="bezier31" d="M79.469,332.514a2.061,2.061,0,1,0-2.569-2,2.338,2.338,0,0,0,2.569,2Zm0,0" transform="translate(-52.923 -174.48)" fill="#2c2723"/>
              <path id="bezier32" d="M86.949,332.514a2.061,2.061,0,1,0-2.569-2,2.335,2.335,0,0,0,2.569,2Zm0,0" transform="translate(-56.408 -174.48)" fill="#2c2723"/>
              <path id="bezier33" d="M95.5,332.514a2.061,2.061,0,1,0-2.569-2A2.335,2.335,0,0,0,95.5,332.514Zm0,0" transform="translate(-60.392 -174.48)" fill="#2c2723"/>
              <path id="bezier34" d="M102.979,332.514a2.061,2.061,0,1,0-2.569-2,2.335,2.335,0,0,0,2.569,2Zm0,0" transform="translate(-63.878 -174.48)" fill="#2c2723"/>
              <path id="bezier35" d="M110.469,332.514a2.061,2.061,0,1,0-2.569-2,2.338,2.338,0,0,0,2.569,2Zm0,0" transform="translate(-67.368 -174.48)" fill="#2c2723"/>
              <path id="bezier36" d="M119.019,332.514a2.061,2.061,0,1,0-2.569-2A2.335,2.335,0,0,0,119.019,332.514Zm0,0" transform="translate(-71.352 -174.48)" fill="#2c2723"/>
              <path id="bezier37" d="M126.5,332.514a2.061,2.061,0,1,0-2.569-2,2.335,2.335,0,0,0,2.569,2Zm0,0" transform="translate(-74.838 -174.48)" fill="#2c2723"/>
              <path id="bezier38" d="M133.979,332.514a2.061,2.061,0,1,0-2.569-2A2.335,2.335,0,0,0,133.979,332.514Zm0,0" transform="translate(-78.323 -174.48)" fill="#2c2723"/>
              <path id="bezier39" d="M144.669,332.514a2.061,2.061,0,1,0-2.569-2,2.335,2.335,0,0,0,2.569,2Zm0,0" transform="translate(-83.305 -174.48)" fill="#2c2723"/>
              <path id="bezier40" d="M152.159,332.514a2.061,2.061,0,1,0-2.569-2,2.338,2.338,0,0,0,2.569,2Zm0,0" transform="translate(-86.795 -174.48)" fill="#2c2723"/>
              <path id="bezier41" d="M159.639,332.514a2.061,2.061,0,1,0-2.569-2A2.335,2.335,0,0,0,159.639,332.514Zm0,0" transform="translate(-90.281 -174.48)" fill="#2c2723"/>
              <path id="bezier42" d="M168.189,332.514a2.061,2.061,0,1,0-2.569-2,2.335,2.335,0,0,0,2.569,2Zm0,0" transform="translate(-94.265 -174.48)" fill="#2c2723"/>
              <path id="bezier43" d="M175.669,332.514a2.061,2.061,0,1,0-2.569-2A2.335,2.335,0,0,0,175.669,332.514Zm0,0" transform="translate(-97.75 -174.48)" fill="#2c2723"/>
              <path id="bezier44" d="M183.159,332.514a2.061,2.061,0,1,0-2.569-2,2.338,2.338,0,0,0,2.569,2Zm0,0" transform="translate(-101.24 -174.48)" fill="#2c2723"/>
              <path id="bezier45" d="M191.709,332.514a2.061,2.061,0,1,0-2.569-2,2.338,2.338,0,0,0,2.569,2Zm0,0" transform="translate(-105.225 -174.48)" fill="#2c2723"/>
              <path id="bezier46" d="M199.189,332.514a2.061,2.061,0,1,0-2.569-2,2.335,2.335,0,0,0,2.569,2Zm0,0" transform="translate(-108.71 -174.48)" fill="#2c2723"/>
              <path id="bezier47" d="M206.669,332.514a2.061,2.061,0,1,0-2.569-2A2.335,2.335,0,0,0,206.669,332.514Zm0,0" transform="translate(-112.196 -174.48)" fill="#2c2723"/>
              <path id="bezier48" d="M121.681,175.542c12.929,0,23.406-1.148,23.406-2.569s-10.477-2.563-23.406-2.563-23.4,1.148-23.4,2.563S108.757,175.542,121.681,175.542Zm0,0" transform="translate(-62.885 -100.803)" fill="rgba(26,23,24,0.05)"/>
              <path id="bezier49" d="M88.822,317.84c-10.723,0-19.412,3.573-19.412,7.984h38.818C108.228,321.413,99.54,317.84,88.822,317.84Zm0,0" transform="translate(-49.432 -169.503)" fill="#fff"/>
              <path id="bezier50" d="M161.511,317.84c-10.718,0-19.411,3.573-19.411,7.984h38.818c0-4.411-8.688-7.984-19.406-7.984Zm0,0" transform="translate(-83.305 -169.503)" fill="#fff"/>
              <path id="bezier51" d="M66.545,267.258c-1.1-1.538-2.611-2.339-3.38-1.789s-.5,2.243.6,3.775,2.617,2.339,3.386,1.794S67.645,268.8,66.545,267.258Zm0,0" transform="translate(-46.317 -145.018)" fill="#f1b89c"/>
            </g>
            <path id="bezier52" d="M145.206,194.074c0,3.61-7.145,6.547-15.983,6.547s-15.983-2.942-15.983-6.547c0-3.637,7.145-6.574,15.983-6.574S145.206,190.437,145.206,194.074Zm0,0" transform="translate(-69.856 -108.767)" fill="none" stroke="#a48677" stroke-width="3"/>
            <path id="bezier53" d="M110.03,184.29v7.989h34.823V184.29Zm0,0" transform="translate(-68.361 -107.271)" fill="#f3c5ad"/>
          </g>
        </g>
      </g>
    </g>
    <path id="line" d="M0,0H49.132" transform="translate(237.5 138.5)" fill="none" stroke="#f3f2f1" stroke-linecap="round" stroke-width="3" stroke-dasharray="5 6"/>
    <g id="design-eye">
      <circle id="bg" cx="38.5" cy="38.5" r="38.5" transform="translate(290 100)" fill="#f3f2f1"/>
      <path id="layer_1-2" data-name="layer 1" d="M32.861,24.358S23.619,40.309,9.9,40.309-13.05,24.358-13.05,24.358-3.81,8.347,9.9,8.347,32.861,24.358,32.861,24.358Zm-11.714,0A11.243,11.243,0,1,0,9.9,35.6,11.243,11.243,0,0,0,21.147,24.358ZM9.9,19.3a5.088,5.088,0,0,0-5,5.061,5,5,0,0,0,5,5,5.087,5.087,0,0,0,5.062-5A5.178,5.178,0,0,0,9.9,19.3Z" transform="translate(319.05 114.308)" fill="#45b29a"/>
      <path id="layer_2" data-name="layer 2" d="M25.954,39.617c-.15,0-.3,0-.455-.006V34.9c.144.006.3.009.455.009a11.242,11.242,0,1,0,0-22.485c-.15,0-.3,0-.455.009V7.661c.171,0,.319-.006.455-.006a19.73,19.73,0,0,1,9.373,2.5,31.649,31.649,0,0,1,7.249,5.5,43.4,43.4,0,0,1,6.335,8,43.666,43.666,0,0,1-6.335,7.976,31.637,31.637,0,0,1-7.249,5.483,19.786,19.786,0,0,1-9.373,2.5Zm0-10.948c-.151,0-.3-.007-.455-.02V18.626c.154-.015.307-.021.455-.021a5.178,5.178,0,0,1,5.063,5.061A4.922,4.922,0,0,1,29.5,27.2a5.129,5.129,0,0,1-3.546,1.47Z" transform="translate(303 115)" fill="#4bc0a6"/>
      <path id="border" d="M32.861,24.358S23.619,40.309,9.9,40.309-13.05,24.358-13.05,24.358-3.81,8.347,9.9,8.347,32.861,24.358,32.861,24.358Zm-11.714,0A11.243,11.243,0,1,0,9.9,35.6,11.243,11.243,0,0,0,21.147,24.358ZM9.9,19.3a5.088,5.088,0,0,0-5,5.061,5,5,0,0,0,5,5,5.087,5.087,0,0,0,5.062-5A5.178,5.178,0,0,0,9.9,19.3Z" transform="translate(319.05 114.308)" fill="none" stroke="#2ba88e" stroke-width="1"/>
    </g>
  </g>
</svg>
