<svg id="sean-halpin-head" xmlns="http://www.w3.org/2000/svg" width="664.744" height="598.933" viewBox="0 0 664.744 598.933">
  <g id="layer_1">
    <g id="layer_1_1_">
      <path id="bezier9" d="M76.2,227.8A44.189,44.189,0,1,0,32,183.624,44.2,44.2,0,0,0,76.2,227.8Zm0,0" transform="translate(-32 164.942)" fill="#f3c5ad"/>
      <path id="bezier10" d="M264.344,227.8a44.189,44.189,0,1,0-44.2-44.173A44.2,44.2,0,0,0,264.344,227.8Zm0,0" transform="translate(356.196 164.942)" fill="#f3c5ad"/>
      <path id="bezier11" d="M338.97,544.193c161.867,0,293.07-102.591,293.07-229.107S500.836,86.01,338.97,86.01,45.9,188.571,45.9,315.086,177.1,544.193,338.97,544.193Zm0,0" transform="translate(-3.32 54.739)" fill="#f3c5ad"/>
      <path id="bezier12" d="M165.589,198.579c0,28.581-22.73-36.729-50.76-36.729s-50.76,65.31-50.76,36.729c0-28.52,22.73-51.679,50.76-51.679s50.76,23.159,50.76,51.679Zm0,0" transform="translate(34.171 180.376)" fill="rgba(26,23,24,0.38)"/>
      <path id="bezier13" d="M292.768,198.579c0,28.581-22.73-36.729-50.76-36.729s-50.729,65.31-50.729,36.729c0-28.52,22.7-51.679,50.729-51.679s50.76,23.159,50.76,51.679Zm0,0" transform="translate(296.648 180.376)" fill="rgba(26,23,24,0.38)"/>
      <path id="bezier14" d="M252.562,140.742c36.3,0,66.015,24.966,68.557,56.641.123-1.44.214-2.91.214-4.381,0-33.727-30.787-61.052-68.772-61.052-37.955,0-68.772,27.325-68.772,61.052,0,1.47.092,2.941.214,4.381,2.543-31.644,32.257-56.641,68.557-56.641Zm0,0" transform="translate(281.194 149.529)" fill="rgba(26,23,24,0.3)"/>
      <path id="bezier15" d="M126.4,140.742c36.331,0,66.046,24.966,68.588,56.641.092-1.44.184-2.91.184-4.381,0-33.727-30.787-61.052-68.772-61.052C88.447,131.95,57.66,159.275,57.66,193c0,1.47.061,2.941.184,4.381,2.543-31.644,32.257-56.641,68.557-56.641Zm0,0" transform="translate(20.945 149.529)" fill="rgba(26,23,24,0.3)"/>
      <path id="bezier16" d="M631.61,239.721c.276-3.155.429-6.341.429-9.527,0-40.865-23.128-78.483-61.91-108.381-4.687-3.615,15.868-45.828,10.752-49.2-4.35-2.849-34.34,33.053-39,30.358-2.236-1.287-4.534-2.573-6.831-3.8-8.516-4.626,1.164-54.9-8.21-58.908-8.179-3.492-35.32,39.241-44.112,36.239-42.519-14.4-91.563-22.638-143.824-22.638-158.865,0-288.168,76-293.008,170.842H631.61v15.01Zm0,0" transform="translate(-3.32 -40.064)" fill="#eca042"/>
      <path id="bezier17" d="M632.039,98.83H45.9V282.079s191.336-60.409,255.084-80.566c39.946-12.621,159.692-50.423,159.692-50.423L632.039,282.079V98.83Zm0,0" transform="translate(-3.32 81.191)" fill="#eca042"/>
      <path id="bezier19" d="M153.118,175.865a16.372,16.372,0,0,1,16.052,13.111,16.374,16.374,0,1,0-32.073,0,16.364,16.364,0,0,1,16.021-13.111Zm0,0" transform="translate(184.155 226.677)" fill="rgba(26,23,24,0.3)"/>
      <path id="bezier20" d="M211.287,211.484a11.457,11.457,0,1,0-11.457-11.457A11.459,11.459,0,0,0,211.287,211.484Zm0,0" transform="translate(314.29 266.355)" fill="rgba(246,172,44,0.5)"/>
      <path id="bezier21" d="M213.281,206.923a4.9,4.9,0,1,0-4.9-4.9A4.922,4.922,0,0,0,213.281,206.923Zm0,0" transform="translate(331.932 283.997)" fill="rgba(246,172,44,0.5)"/>
      <path id="bezier22" d="M199.966,209.13a6.54,6.54,0,1,0-6.556-6.556A6.563,6.563,0,0,0,199.966,209.13Zm0,0" transform="translate(301.043 281.789)" fill="rgba(246,172,44,0.5)"/>
      <path id="bezier23" d="M201.454,201.458a1.639,1.639,0,1,0-1.624-1.624A1.641,1.641,0,0,0,201.454,201.458Zm0,0" transform="translate(314.29 286.184)" fill="rgba(246,172,44,0.5)"/>
      <path id="bezier24" d="M93.7,211.484A11.457,11.457,0,1,0,82.24,200.027,11.459,11.459,0,0,0,93.7,211.484Zm0,0" transform="translate(71.662 266.355)" fill="rgba(246,172,44,0.5)"/>
      <path id="bezier25" d="M95.722,206.923a4.9,4.9,0,1,0-4.932-4.9A4.916,4.916,0,0,0,95.722,206.923Zm0,0" transform="translate(89.304 283.997)" fill="rgba(246,172,44,0.5)"/>
      <path id="bezier26" d="M81.316,209.13a6.54,6.54,0,1,0-6.556-6.556A6.537,6.537,0,0,0,81.316,209.13Zm0,0" transform="translate(56.228 281.789)" fill="rgba(246,172,44,0.5)"/>
      <path id="bezier27" d="M82.824,201.458a1.639,1.639,0,1,0-1.654-1.624A1.634,1.634,0,0,0,82.824,201.458Zm0,0" transform="translate(69.454 286.184)" fill="rgba(246,172,44,0.5)"/>
      <path id="bezier28" d="M119.362,182.16A88.512,88.512,0,0,0,54.45,210.435C82.3,259.387,131.309,299.241,192.331,322.89a89.524,89.524,0,0,0,16.021-51.219c0-49.442-39.854-89.511-88.99-89.511Zm0,0" transform="translate(14.322 253.129)" fill="rgba(7,7,6,0.05)"/>
      <path id="bezier29" d="M267.44,182.16a88.512,88.512,0,0,1,64.912,28.275c-27.846,48.952-76.859,88.806-137.881,112.455a89.524,89.524,0,0,1-16.021-51.219c0-49.442,39.823-89.511,88.99-89.511Zm0,0" transform="translate(270.176 253.129)" fill="rgba(7,7,6,0.05)"/>
      <path id="bezier48" d="M232.515,199.849c74.163,0,134.266-6.586,134.266-14.735,0-8.118-60.1-14.7-134.266-14.7-74.133,0-134.236,6.586-134.236,14.7C98.28,193.262,158.383,199.849,232.515,199.849Zm0,0" transform="translate(104.758 228.885)" fill="rgba(26,23,24,0.05)"/>
    </g>
    <path id="bezier52" d="M296.611,225.21c0,20.708-40.987,37.557-91.686,37.557S113.24,245.887,113.24,225.21c0-20.861,40.987-37.71,91.686-37.71s91.686,16.848,91.686,37.71Zm0,0" transform="translate(135.626 264.147)" fill="none" stroke="#a48677" stroke-width="3"/>
    <path id="bezier53" d="M110.03,184.29v45.828H309.79V184.29Zm0,0" transform="translate(129.002 257.524)" fill="#f3c5ad"/>
  </g>
</svg>
