<svg xmlns="http://www.w3.org/2000/svg" width="724.744" height="658.933" viewBox="0 0 724.744 658.933">
  <g id="sean-halpin-head-2" transform="translate(-2829.027 -225.729)">
    <g id="Union_2" data-name="Union 2" transform="translate(2859.027 255.729)" fill="#f3c5ad">
      <path d="M 335.6495666503906 613.9329223632813 C 181.7453002929688 613.9329223632813 53.27135848999023 525.4525146484375 30.97098922729492 406.2455444335938 C 4.688133239746094 400.2103576660156 -14.99994659423828 376.604736328125 -14.99994659423828 348.5655212402344 C -14.99994659423828 321.5634460449219 2.816301822662354 298.8511657714844 27.57995414733887 291.7020568847656 L 27.57995414733887 224.9838104248047 L 27.57995414733887 209.9838104248047 L 42.57995223999023 209.9838104248047 L 102.663948059082 209.9838104248047 C 106.5313568115234 206.4474334716797 110.526496887207 202.9996337890625 114.6410293579102 199.6467132568359 L 42.58085250854492 199.6467132568359 L 26.79595375061035 199.6467132568359 L 27.6003532409668 183.8823089599609 C 32.89585494995117 80.1002197265625 168.1803588867188 -1.195783972740173 335.5884399414063 -1.195783972740173 C 385.4976196289063 -1.195783972740173 434.8797912597656 6.277161121368408 478.8093566894531 20.44585609436035 C 482.242919921875 17.30889701843262 487.3490600585938 11.64974403381348 490.4180603027344 8.248415946960449 C 502.6946411132813 -5.358883857727051 511.3926391601563 -14.99978351593018 522.4739379882813 -14.99978351593018 C 524.8914794921875 -14.99978351593018 527.2268676757813 -14.5259838104248 529.415283203125 -13.59158420562744 C 543.4575805664063 -7.579584121704102 543.216064453125 10.11201572418213 542.9363403320313 30.59711647033691 C 542.8941040039063 33.68850326538086 542.83837890625 37.77133941650391 542.8932495117188 41.52424621582031 C 544.6371459960938 39.88064193725586 546.3417358398438 38.24364471435547 547.7369384765625 36.90371704101563 C 562.2401733398438 22.97271537780762 568.3926391601563 17.39071655273438 576.952880859375 17.39071655273438 L 581.429443359375 17.39071655273438 L 585.7825317382813 20.005615234375 C 598.1122436523438 28.12701606750488 593.1871337890625 42.5051155090332 586.3706665039063 62.40511703491211 C 585.1585693359375 65.94364166259766 583.4200439453125 71.01889038085938 582.2719116210938 74.90424346923828 C 621.96435546875 107.7549209594727 643.7193603515625 148.4199981689453 643.7193603515625 190.1304168701172 C 643.7193603515625 193.7515106201172 643.5472412109375 197.3738098144531 643.234130859375 200.9611206054688 L 613.2909545898438 199.6569213867188 L 613.2909545898438 199.6467132568359 L 556.65869140625 199.6467132568359 C 560.773193359375 202.9996185302734 564.7684326171875 206.4474639892578 568.6358642578125 209.9838104248047 L 628.7193603515625 209.9838104248047 L 643.7193603515625 209.9838104248047 L 643.7193603515625 224.9838104248047 L 643.7193603515625 236.2878112792969 L 643.7193603515625 294.065673828125 C 665.1774291992188 303.1784362792969 679.7445678710938 324.4308166503906 679.7445678710938 348.5655212402344 C 679.7445678710938 374.0828552246094 663.869873046875 395.9776611328125 640.6934204101563 404.2487487792969 C 619.4627685546875 524.4912719726563 490.5316162109375 613.9329223632813 335.6495666503906 613.9329223632813 Z" stroke="none"/>
      <path d="M 335.6495971679688 598.932861328125 C 487.8541564941406 598.932861328125 612.9450073242188 508.2345581054688 627.336669921875 392.2200927734375 C 648.5247192382813 388.9513244628906 664.7444458007813 370.6417846679688 664.7444458007813 348.5655517578125 C 664.7444458007813 326.9452209472656 649.2269287109375 308.9522094726563 628.7193603515625 305.1170959472656 L 628.7193603515625 236.2877655029297 L 628.7193603515625 224.9837646484375 L 562.7156982421875 224.9837646484375 C 546.8351440429688 209.7898864746094 528.5143432617188 196.2263336181641 508.2104797363281 184.6466674804688 L 628.2908935546875 184.6466674804688 L 628.2908935546875 199.6568756103516 C 628.5663452148438 196.5015563964844 628.7193603515625 193.3155517578125 628.7193603515625 190.1304321289063 C 628.7193603515625 149.2649993896484 605.5911254882813 111.6476593017578 566.8092651367188 81.74877166748047 C 562.1229248046875 78.13443756103516 582.6771240234375 35.92166137695313 577.5615844726563 32.55210494995117 C 577.3951416015625 32.44304275512695 577.1914672851563 32.39074325561523 576.9528198242188 32.39074325561523 C 574.0662841796875 32.39074325561523 566.1072387695313 40.05732345581055 558.1268920898438 47.72254943847656 C 550.1448364257813 55.38826751708984 542.1412353515625 63.0545654296875 539.1686401367188 63.0545654296875 C 538.93603515625 63.0545654296875 538.7340698242188 63.00757598876953 538.5654907226563 62.90999221801758 C 536.3289184570313 61.62299346923828 534.0321655273438 60.33599472045898 531.7344970703125 59.11110305786133 C 523.2177124023438 54.48510360717773 532.8981323242188 4.216549396514893 523.5245971679688 0.2034382820129395 C 523.2028198242188 0.0660451278090477 522.85205078125 0.0002017415390582755 522.4739379882813 0.0002017415390582755 C 518.0193481445313 0.0002017415390582755 509.8089904785156 9.148390769958496 501.5546875 18.29699325561523 C 493.2996826171875 27.44597244262695 485.0009765625 36.59383392333984 480.369873046875 36.59383392333984 C 480.0307006835938 36.59383392333984 479.7103881835938 36.54459762573242 479.4120178222656 36.44277191162109 C 436.8933715820313 22.0445499420166 387.8495788574219 13.8042163848877 335.58837890625 13.8042163848877 C 176.7240295410156 13.8042163848877 47.42014312744141 89.8056640625 42.580810546875 184.6466674804688 L 163.0891418457031 184.6466674804688 C 142.7851409912109 196.2263336181641 124.4645843505859 209.7898864746094 108.5840301513672 224.9837646484375 L 42.94803237915039 224.9837646484375 L 42.57992172241211 224.9837646484375 L 42.57992172241211 304.3913269042969 C 18.9174747467041 305.24609375 3.119574830634519e-05 324.6950988769531 3.119574830634519e-05 348.5655517578125 C 3.119574830634519e-05 372.89208984375 19.6934757232666 392.6449890136719 44.02858734130859 392.7388916015625 C 58.72858810424805 508.5045471191406 183.6722564697266 598.932861328125 335.6495971679688 598.932861328125 M 335.6495971679688 628.932861328125 C 178.3764038085938 628.932861328125 46.32140350341797 539.6640625 18.11116409301758 417.9950256347656 C -9.958179473876953 407.3993225097656 -29.99996948242188 380.2385864257813 -29.99996948242188 348.5655517578125 C -29.99996948242188 318.791015625 -12.71365547180176 293.1774597167969 12.57991981506348 281.3475036621094 L 12.57991981506348 224.9837646484375 L 12.57991981506348 214.6466674804688 L 11.01103115081787 214.6466674804688 L 12.6198091506958 183.1178894042969 C 18.32269859313965 71.35321807861328 160.1873626708984 -16.1957836151123 335.58837890625 -16.1957836151123 C 383.7106323242188 -16.1957836151123 431.4121398925781 -9.439685821533203 474.5304260253906 3.414339303970337 C 476.2787170410156 1.527537941932678 478.0005798339844 -0.380781352519989 479.2811279296875 -1.800006151199341 C 493.0431518554688 -17.05356216430664 504.7232666015625 -29.99978446960449 522.4739379882813 -29.99978446960449 C 526.9288330078125 -29.99978446960449 531.2471313476563 -29.1201171875 535.308837890625 -27.38522911071777 C 551.0965576171875 -20.62600326538086 556.0186767578125 -6.674405574798584 557.4554443359375 8.655060768127441 C 563.52099609375 4.652007579803467 569.6085815429688 2.390771627426147 576.9528198242188 2.390771627426147 L 585.9094848632813 2.390771627426147 L 594.0087890625 7.462549209594727 C 616.0689086914063 21.99310493469238 607.8301391601563 46.04521560668945 600.561279296875 67.26588439941406 C 600.27197265625 68.11036682128906 599.9464111328125 69.06076049804688 599.6054077148438 70.06366729736328 C 637.8682250976563 104.6242370605469 658.7193603515625 146.7021179199219 658.7193603515625 190.1304321289063 C 658.7193603515625 191.7487640380859 658.6889038085938 193.3675994873047 658.6300659179688 194.9837646484375 L 658.7193603515625 194.9837646484375 L 658.7193603515625 224.9837646484375 L 658.7193603515625 236.2877655029297 L 658.7193603515625 284.9126281738281 C 680.5323486328125 298.0111999511719 694.7444458007813 321.88427734375 694.7444458007813 348.5655517578125 C 694.7444458007813 377.4870300292969 678.476318359375 402.6950378417969 653.879638671875 414.92431640625 C 627.2172241210938 538.2020263671875 494.3798828125 628.932861328125 335.6495971679688 628.932861328125 Z" stroke="none" fill="#70595e"/>
    </g>
    <g id="sean-halpin-head" transform="translate(2859.027 255.729)">
      <g id="layer_1">
        <g id="layer_1_1_">
          <path id="bezier9" d="M76.2,227.8A44.189,44.189,0,1,0,32,183.624,44.2,44.2,0,0,0,76.2,227.8Zm0,0" transform="translate(-32 164.942)" fill="#f3c5ad"/>
          <path id="bezier10" d="M264.344,227.8a44.189,44.189,0,1,0-44.2-44.173A44.2,44.2,0,0,0,264.344,227.8Zm0,0" transform="translate(356.196 164.942)" fill="#f3c5ad"/>
          <path id="bezier11" d="M338.97,544.193c161.867,0,293.07-102.591,293.07-229.107S500.836,86.01,338.97,86.01,45.9,188.571,45.9,315.086,177.1,544.193,338.97,544.193Zm0,0" transform="translate(-3.32 54.739)" fill="#f3c5ad"/>
          <path id="bezier12" d="M165.589,198.579c0,28.581-22.73-36.729-50.76-36.729s-50.76,65.31-50.76,36.729c0-28.52,22.73-51.679,50.76-51.679s50.76,23.159,50.76,51.679Zm0,0" transform="translate(34.171 180.376)" fill="rgba(26,23,24,0.38)"/>
          <path id="bezier13" d="M292.768,198.579c0,28.581-22.73-36.729-50.76-36.729s-50.729,65.31-50.729,36.729c0-28.52,22.7-51.679,50.729-51.679s50.76,23.159,50.76,51.679Zm0,0" transform="translate(296.648 180.376)" fill="rgba(26,23,24,0.38)"/>
          <path id="bezier14" d="M252.562,140.742c36.3,0,66.015,24.966,68.557,56.641.123-1.44.214-2.91.214-4.381,0-33.727-30.787-61.052-68.772-61.052-37.955,0-68.772,27.325-68.772,61.052,0,1.47.092,2.941.214,4.381,2.543-31.644,32.257-56.641,68.557-56.641Zm0,0" transform="translate(281.194 149.529)" fill="rgba(26,23,24,0.3)"/>
          <path id="bezier15" d="M126.4,140.742c36.331,0,66.046,24.966,68.588,56.641.092-1.44.184-2.91.184-4.381,0-33.727-30.787-61.052-68.772-61.052C88.447,131.95,57.66,159.275,57.66,193c0,1.47.061,2.941.184,4.381,2.543-31.644,32.257-56.641,68.557-56.641Zm0,0" transform="translate(20.945 149.529)" fill="rgba(26,23,24,0.3)"/>
          <path id="bezier16" d="M631.61,239.721c.276-3.155.429-6.341.429-9.527,0-40.865-23.128-78.483-61.91-108.381-4.687-3.615,15.868-45.828,10.752-49.2-4.35-2.849-34.34,33.053-39,30.358-2.236-1.287-4.534-2.573-6.831-3.8-8.516-4.626,1.164-54.9-8.21-58.908-8.179-3.492-35.32,39.241-44.112,36.239-42.519-14.4-91.563-22.638-143.824-22.638-158.865,0-288.168,76-293.008,170.842H631.61v15.01Zm0,0" transform="translate(-3.32 -40.064)" fill="#eca042"/>
          <path id="bezier17" d="M632.039,98.83H45.9V282.079s191.336-60.409,255.084-80.566c39.946-12.621,159.692-50.423,159.692-50.423L632.039,282.079V98.83Zm0,0" transform="translate(-3.32 81.191)" fill="#eca042"/>
          <path id="bezier19" d="M153.118,175.865a16.372,16.372,0,0,1,16.052,13.111,16.374,16.374,0,1,0-32.073,0,16.364,16.364,0,0,1,16.021-13.111Zm0,0" transform="translate(184.155 226.677)" fill="rgba(26,23,24,0.3)"/>
          <path id="bezier20" d="M211.287,211.484a11.457,11.457,0,1,0-11.457-11.457A11.459,11.459,0,0,0,211.287,211.484Zm0,0" transform="translate(314.29 266.355)" fill="rgba(246,172,44,0.5)"/>
          <path id="bezier21" d="M213.281,206.923a4.9,4.9,0,1,0-4.9-4.9A4.922,4.922,0,0,0,213.281,206.923Zm0,0" transform="translate(331.932 283.997)" fill="rgba(246,172,44,0.5)"/>
          <path id="bezier22" d="M199.966,209.13a6.54,6.54,0,1,0-6.556-6.556A6.563,6.563,0,0,0,199.966,209.13Zm0,0" transform="translate(301.043 281.789)" fill="rgba(246,172,44,0.5)"/>
          <path id="bezier23" d="M201.454,201.458a1.639,1.639,0,1,0-1.624-1.624A1.641,1.641,0,0,0,201.454,201.458Zm0,0" transform="translate(314.29 286.184)" fill="rgba(246,172,44,0.5)"/>
          <path id="bezier24" d="M93.7,211.484A11.457,11.457,0,1,0,82.24,200.027,11.459,11.459,0,0,0,93.7,211.484Zm0,0" transform="translate(71.662 266.355)" fill="rgba(246,172,44,0.5)"/>
          <path id="bezier25" d="M95.722,206.923a4.9,4.9,0,1,0-4.932-4.9A4.916,4.916,0,0,0,95.722,206.923Zm0,0" transform="translate(89.304 283.997)" fill="rgba(246,172,44,0.5)"/>
          <path id="bezier26" d="M81.316,209.13a6.54,6.54,0,1,0-6.556-6.556A6.537,6.537,0,0,0,81.316,209.13Zm0,0" transform="translate(56.228 281.789)" fill="rgba(246,172,44,0.5)"/>
          <path id="bezier27" d="M82.824,201.458a1.639,1.639,0,1,0-1.654-1.624A1.634,1.634,0,0,0,82.824,201.458Zm0,0" transform="translate(69.454 286.184)" fill="rgba(246,172,44,0.5)"/>
          <path id="bezier28" d="M119.362,182.16A88.512,88.512,0,0,0,54.45,210.435C82.3,259.387,131.309,299.241,192.331,322.89a89.524,89.524,0,0,0,16.021-51.219c0-49.442-39.854-89.511-88.99-89.511Zm0,0" transform="translate(14.322 253.129)" fill="rgba(7,7,6,0.05)"/>
          <path id="bezier29" d="M267.44,182.16a88.512,88.512,0,0,1,64.912,28.275c-27.846,48.952-76.859,88.806-137.881,112.455a89.524,89.524,0,0,1-16.021-51.219c0-49.442,39.823-89.511,88.99-89.511Zm0,0" transform="translate(270.176 253.129)" fill="rgba(7,7,6,0.05)"/>
          <path id="bezier48" d="M232.515,199.849c74.163,0,134.266-6.586,134.266-14.735,0-8.118-60.1-14.7-134.266-14.7-74.133,0-134.236,6.586-134.236,14.7C98.28,193.262,158.383,199.849,232.515,199.849Zm0,0" transform="translate(104.758 228.885)" fill="rgba(26,23,24,0.05)"/>
        </g>
        <path id="bezier52" d="M296.611,225.21c0,20.708-40.987,37.557-91.686,37.557S113.24,245.887,113.24,225.21c0-20.861,40.987-37.71,91.686-37.71s91.686,16.848,91.686,37.71Zm0,0" transform="translate(135.626 264.147)" fill="none" stroke="#a48677" stroke-width="3"/>
        <path id="bezier53" d="M110.03,184.29v45.828H309.79V184.29Zm0,0" transform="translate(129.002 257.524)" fill="#f3c5ad"/>
      </g>
    </g>
  </g>
</svg>
