<svg id="sean-halpin-body" xmlns="http://www.w3.org/2000/svg" width="664.744" height="906.553" viewBox="0 0 664.744 906.553">
  <g id="layer_1">
    <g id="layer_1_1_">
      <path id="bezier2" d="M189.352,235.733c33.881,12.682,40.528,78.513,14.827,147.071C178.508,451.362,130.2,496.669,96.349,483.986,62.468,471.3,55.821,405.442,81.522,336.915,107.193,268.358,155.5,223.051,189.352,235.733Zm0,0" transform="translate(37.886 359.278)" fill="#f3c5ad"/>
      <path id="bezier" d="M85.45,313.56v52.383H432.557V313.56Zm0,0" transform="translate(78.285 524.252)"/>
      <path id="bezier3" d="M74.093,308.425c-5.146-3.4-5.33-16.91-.7-31.185q-.781,1.746-1.47,3.584c-5.943,15.562-6.219,31.185-.613,34.891,5.637,3.707,14.949-5.912,20.892-21.474.459-1.256.888-2.481,1.287-3.707-5.912,13.417-14.245,21.29-19.391,17.89Zm0,0" transform="translate(40.783 449.311)" fill="rgba(26,23,24,0.3)"/>
      <path id="bezier4" d="M192.349,223.733c-33.881,12.682-40.528,78.513-14.827,147.071,25.671,68.557,73.98,113.864,107.829,101.182,33.881-12.682,40.528-78.544,14.827-147.071C274.508,256.358,226.2,211.051,192.349,223.733Zm0,0" transform="translate(235.967 334.518)" fill="#f3c5ad"/>
      <path id="bezier5" d="M208.807,320.04c-10.017,0-18.227-15.378-19.483-35.32q-.184,2.573-.184,5.238c0,22.424,8.792,40.589,19.636,40.589s19.667-18.166,19.667-40.589c0-1.777-.092-3.523-.214-5.238-1.225,19.912-9.466,35.32-19.422,35.32Zm0,0" transform="translate(292.233 464.745)" fill="rgba(26,23,24,0.3)"/>
      <path id="bezier6" d="M487.361,305.689,427.442,220.62,379.164,242.8l-4.289-14H182.161l-3.308,12.131-44.173-20.31L74.76,305.689l76.553,35.167L104.229,511.882H461.506L409.368,341.53Zm0,0" transform="translate(56.228 332.485)" fill="#3aa488"/>
      <path id="bezier7" d="M179.591,327.61a55.63,55.63,0,1,0-55.661-55.63A55.661,55.661,0,0,0,179.591,327.61Zm0,0" transform="translate(157.683 323.675)" fill="#fff"/>
      <path id="bezier8" d="M172.876,306.864c25.273,0,45.736-19.115,45.736-42.672s-20.463-42.642-45.736-42.642-45.736,19.085-45.736,42.642S147.6,306.864,172.876,306.864Zm0,0" transform="translate(164.306 334.404)" fill="#d5a691"/>
      <path id="bezier9" d="M76.2,227.8A44.189,44.189,0,1,0,32,183.624,44.2,44.2,0,0,0,76.2,227.8Zm0,0" transform="translate(-32 164.942)" fill="#f3c5ad"/>
      <path id="bezier10" d="M264.344,227.8a44.189,44.189,0,1,0-44.2-44.173A44.2,44.2,0,0,0,264.344,227.8Zm0,0" transform="translate(356.196 164.942)" fill="#f3c5ad"/>
      <path id="bezier11" d="M338.97,544.193c161.867,0,293.07-102.591,293.07-229.107S500.836,86.01,338.97,86.01,45.9,188.571,45.9,315.086,177.1,544.193,338.97,544.193Zm0,0" transform="translate(-3.32 54.739)" fill="#f3c5ad"/>
      <path id="bezier12" d="M165.589,198.579c0,28.581-22.73-36.729-50.76-36.729s-50.76,65.31-50.76,36.729c0-28.52,22.73-51.679,50.76-51.679s50.76,23.159,50.76,51.679Zm0,0" transform="translate(34.171 180.376)" fill="rgba(26,23,24,0.38)"/>
      <path id="bezier13" d="M292.768,198.579c0,28.581-22.73-36.729-50.76-36.729s-50.729,65.31-50.729,36.729c0-28.52,22.7-51.679,50.729-51.679s50.76,23.159,50.76,51.679Zm0,0" transform="translate(296.648 180.376)" fill="rgba(26,23,24,0.38)"/>
      <path id="bezier14" d="M252.562,140.742c36.3,0,66.015,24.966,68.557,56.641.123-1.44.214-2.91.214-4.381,0-33.727-30.787-61.052-68.772-61.052-37.955,0-68.772,27.325-68.772,61.052,0,1.47.092,2.941.214,4.381,2.543-31.644,32.257-56.641,68.557-56.641Zm0,0" transform="translate(281.194 149.529)" fill="rgba(26,23,24,0.3)"/>
      <path id="bezier15" d="M126.4,140.742c36.331,0,66.046,24.966,68.588,56.641.092-1.44.184-2.91.184-4.381,0-33.727-30.787-61.052-68.772-61.052C88.447,131.95,57.66,159.275,57.66,193c0,1.47.061,2.941.184,4.381,2.543-31.644,32.257-56.641,68.557-56.641Zm0,0" transform="translate(20.945 149.529)" fill="rgba(26,23,24,0.3)"/>
      <path id="bezier16" d="M631.61,239.721c.276-3.155.429-6.341.429-9.527,0-40.865-23.128-78.483-61.91-108.381-4.687-3.615,15.868-45.828,10.752-49.2-4.35-2.849-34.34,33.053-39,30.358-2.236-1.287-4.534-2.573-6.831-3.8-8.516-4.626,1.164-54.9-8.21-58.908-8.179-3.492-35.32,39.241-44.112,36.239-42.519-14.4-91.563-22.638-143.824-22.638-158.865,0-288.168,76-293.008,170.842H631.61v15.01Zm0,0" transform="translate(-3.32 -40.064)" fill="#eca042"/>
      <path id="bezier17" d="M632.039,98.83H45.9V282.079s191.336-60.409,255.084-80.566c39.946-12.621,159.692-50.423,159.692-50.423L632.039,282.079V98.83Zm0,0" transform="translate(-3.32 81.191)" fill="#eca042"/>
      <path id="bezier18" d="M141.03,317.84v42.55h3.278V317.84Zm0,0" transform="translate(192.966 533.083)" fill="#2c2723"/>
      <path id="bezier19" d="M153.118,175.865a16.372,16.372,0,0,1,16.052,13.111,16.374,16.374,0,1,0-32.073,0,16.364,16.364,0,0,1,16.021-13.111Zm0,0" transform="translate(184.155 226.677)" fill="rgba(26,23,24,0.3)"/>
      <path id="bezier20" d="M211.287,211.484a11.457,11.457,0,1,0-11.457-11.457A11.459,11.459,0,0,0,211.287,211.484Zm0,0" transform="translate(314.29 266.355)" fill="rgba(246,172,44,0.5)"/>
      <path id="bezier21" d="M213.281,206.923a4.9,4.9,0,1,0-4.9-4.9A4.922,4.922,0,0,0,213.281,206.923Zm0,0" transform="translate(331.932 283.997)" fill="rgba(246,172,44,0.5)"/>
      <path id="bezier22" d="M199.966,209.13a6.54,6.54,0,1,0-6.556-6.556A6.563,6.563,0,0,0,199.966,209.13Zm0,0" transform="translate(301.043 281.789)" fill="rgba(246,172,44,0.5)"/>
      <path id="bezier23" d="M201.454,201.458a1.639,1.639,0,1,0-1.624-1.624A1.641,1.641,0,0,0,201.454,201.458Zm0,0" transform="translate(314.29 286.184)" fill="rgba(246,172,44,0.5)"/>
      <path id="bezier24" d="M93.7,211.484A11.457,11.457,0,1,0,82.24,200.027,11.459,11.459,0,0,0,93.7,211.484Zm0,0" transform="translate(71.662 266.355)" fill="rgba(246,172,44,0.5)"/>
      <path id="bezier25" d="M95.722,206.923a4.9,4.9,0,1,0-4.932-4.9A4.916,4.916,0,0,0,95.722,206.923Zm0,0" transform="translate(89.304 283.997)" fill="rgba(246,172,44,0.5)"/>
      <path id="bezier26" d="M81.316,209.13a6.54,6.54,0,1,0-6.556-6.556A6.537,6.537,0,0,0,81.316,209.13Zm0,0" transform="translate(56.228 281.789)" fill="rgba(246,172,44,0.5)"/>
      <path id="bezier27" d="M82.824,201.458a1.639,1.639,0,1,0-1.654-1.624A1.634,1.634,0,0,0,82.824,201.458Zm0,0" transform="translate(69.454 286.184)" fill="rgba(246,172,44,0.5)"/>
      <path id="bezier28" d="M119.362,182.16A88.512,88.512,0,0,0,54.45,210.435C82.3,259.387,131.309,299.241,192.331,322.89a89.524,89.524,0,0,0,16.021-51.219c0-49.442-39.854-89.511-88.99-89.511Zm0,0" transform="translate(14.322 253.129)" fill="rgba(7,7,6,0.05)"/>
      <path id="bezier29" d="M267.44,182.16a88.512,88.512,0,0,1,64.912,28.275c-27.846,48.952-76.859,88.806-137.881,112.455a89.524,89.524,0,0,1-16.021-51.219c0-49.442,39.823-89.511,88.99-89.511Zm0,0" transform="translate(270.176 253.129)" fill="rgba(7,7,6,0.05)"/>
      <path id="bezier30" d="M84.145,351.434c8.148,0,14.735-5.116,14.735-11.457,0-6.31-6.586-11.457-14.735-11.457-8.118,0-14.735,5.146-14.735,11.457C69.41,346.318,76.027,351.434,84.145,351.434Zm0,0" transform="translate(45.189 555.119)" fill="#2c2723"/>
      <path id="bezier31" d="M91.635,351.434c8.118,0,14.735-5.116,14.735-11.457,0-6.31-6.617-11.457-14.735-11.457-8.148,0-14.735,5.146-14.735,11.457C76.9,346.318,83.486,351.434,91.635,351.434Zm0,0" transform="translate(60.644 555.119)" fill="#2c2723"/>
      <path id="bezier32" d="M99.115,351.434c8.148,0,14.735-5.116,14.735-11.457,0-6.31-6.586-11.457-14.735-11.457S84.38,333.667,84.38,339.977C84.38,346.318,90.966,351.434,99.115,351.434Zm0,0" transform="translate(76.078 555.119)" fill="#2c2723"/>
      <path id="bezier33" d="M107.665,351.434c8.148,0,14.735-5.116,14.735-11.457,0-6.31-6.586-11.457-14.735-11.457S92.93,333.667,92.93,339.977C92.93,346.318,99.516,351.434,107.665,351.434Zm0,0" transform="translate(93.719 555.119)" fill="#2c2723"/>
      <path id="bezier34" d="M115.145,351.434c8.148,0,14.735-5.116,14.735-11.457,0-6.31-6.586-11.457-14.735-11.457-8.118,0-14.735,5.146-14.735,11.457C100.41,346.318,107.027,351.434,115.145,351.434Zm0,0" transform="translate(109.153 555.119)" fill="#2c2723"/>
      <path id="bezier35" d="M122.635,351.434c8.118,0,14.735-5.116,14.735-11.457,0-6.31-6.617-11.457-14.735-11.457-8.148,0-14.735,5.146-14.735,11.457C107.9,346.318,114.486,351.434,122.635,351.434Zm0,0" transform="translate(124.607 555.119)" fill="#2c2723"/>
      <path id="bezier36" d="M131.185,351.434c8.148,0,14.735-5.116,14.735-11.457,0-6.31-6.586-11.457-14.735-11.457s-14.735,5.146-14.735,11.457C116.45,346.318,123.036,351.434,131.185,351.434Zm0,0" transform="translate(142.249 555.119)" fill="#2c2723"/>
      <path id="bezier37" d="M138.665,351.434c8.148,0,14.735-5.116,14.735-11.457,0-6.31-6.586-11.457-14.735-11.457s-14.735,5.146-14.735,11.457C123.93,346.318,130.516,351.434,138.665,351.434Zm0,0" transform="translate(157.683 555.119)" fill="#2c2723"/>
      <path id="bezier38" d="M146.145,351.434c8.148,0,14.735-5.116,14.735-11.457,0-6.31-6.586-11.457-14.735-11.457-8.118,0-14.735,5.146-14.735,11.457C131.41,346.318,138.027,351.434,146.145,351.434Zm0,0" transform="translate(173.116 555.119)" fill="#2c2723"/>
      <path id="bezier39" d="M156.835,351.434c8.148,0,14.735-5.116,14.735-11.457,0-6.31-6.586-11.457-14.735-11.457-8.118,0-14.735,5.146-14.735,11.457C142.1,346.318,148.717,351.434,156.835,351.434Zm0,0" transform="translate(195.174 555.119)" fill="#2c2723"/>
      <path id="bezier40" d="M164.325,351.434c8.118,0,14.735-5.116,14.735-11.457,0-6.31-6.617-11.457-14.735-11.457-8.148,0-14.735,5.146-14.735,11.457C149.59,346.318,156.176,351.434,164.325,351.434Zm0,0" transform="translate(210.628 555.119)" fill="#2c2723"/>
      <path id="bezier41" d="M171.8,351.434c8.148,0,14.735-5.116,14.735-11.457,0-6.31-6.586-11.457-14.735-11.457s-14.735,5.146-14.735,11.457C157.07,346.318,163.656,351.434,171.8,351.434Zm0,0" transform="translate(226.062 555.119)" fill="#2c2723"/>
      <path id="bezier42" d="M180.355,351.434c8.148,0,14.735-5.116,14.735-11.457,0-6.31-6.586-11.457-14.735-11.457s-14.735,5.146-14.735,11.457C165.62,346.318,172.206,351.434,180.355,351.434Zm0,0" transform="translate(243.703 555.119)" fill="#2c2723"/>
      <path id="bezier43" d="M187.835,351.434c8.148,0,14.735-5.116,14.735-11.457,0-6.31-6.586-11.457-14.735-11.457-8.118,0-14.735,5.146-14.735,11.457C173.1,346.318,179.717,351.434,187.835,351.434Zm0,0" transform="translate(259.137 555.119)" fill="#2c2723"/>
      <path id="bezier44" d="M195.325,351.434c8.118,0,14.735-5.116,14.735-11.457,0-6.31-6.617-11.457-14.735-11.457-8.148,0-14.735,5.146-14.735,11.457C180.59,346.318,187.176,351.434,195.325,351.434Zm0,0" transform="translate(274.591 555.119)" fill="#2c2723"/>
      <path id="bezier45" d="M203.875,351.434c8.118,0,14.735-5.116,14.735-11.457,0-6.31-6.617-11.457-14.735-11.457-8.148,0-14.735,5.146-14.735,11.457C189.14,346.318,195.726,351.434,203.875,351.434Zm0,0" transform="translate(292.233 555.119)" fill="#2c2723"/>
      <path id="bezier46" d="M211.355,351.434c8.148,0,14.735-5.116,14.735-11.457,0-6.31-6.586-11.457-14.735-11.457s-14.735,5.146-14.735,11.457C196.62,346.318,203.206,351.434,211.355,351.434Zm0,0" transform="translate(307.667 555.119)" fill="#2c2723"/>
      <path id="bezier47" d="M218.835,351.434c8.148,0,14.735-5.116,14.735-11.457,0-6.31-6.586-11.457-14.735-11.457-8.118,0-14.735,5.146-14.735,11.457C204.1,346.318,210.717,351.434,218.835,351.434Zm0,0" transform="translate(323.101 555.119)" fill="#2c2723"/>
      <path id="bezier48" d="M232.515,199.849c74.163,0,134.266-6.586,134.266-14.735,0-8.118-60.1-14.7-134.266-14.7-74.133,0-134.236,6.586-134.236,14.7C98.28,193.262,158.383,199.849,232.515,199.849Zm0,0" transform="translate(104.758 228.885)" fill="rgba(26,23,24,0.05)"/>
      <path id="bezier49" d="M180.762,317.84c-61.512,0-111.352,20.494-111.352,45.8H292.084c0-25.3-49.841-45.8-111.322-45.8Zm0,0" transform="translate(45.189 533.083)" fill="#fff"/>
      <path id="bezier50" d="M253.452,317.84c-61.481,0-111.352,20.494-111.352,45.8H364.774c0-25.3-49.84-45.8-111.322-45.8Zm0,0" transform="translate(195.174 533.083)" fill="#fff"/>
      <path id="bezier51" d="M84.646,276.553c-6.31-8.822-14.98-13.417-19.391-10.262-4.442,3.155-2.88,12.866,3.431,21.658C75,296.771,83.7,301.366,88.108,298.241,92.519,295.086,90.957,285.375,84.646,276.553Zm0,0" transform="translate(31.393 424.665)" fill="#f1b89c"/>
    </g>
    <path id="bezier52" d="M296.611,225.21c0,20.708-40.987,37.557-91.686,37.557S113.24,245.887,113.24,225.21c0-20.861,40.987-37.71,91.686-37.71s91.686,16.848,91.686,37.71Zm0,0" transform="translate(135.626 264.147)" fill="none" stroke="#a48677" stroke-width="3"/>
    <path id="bezier53" d="M110.03,184.29v45.828H309.79V184.29Zm0,0" transform="translate(129.002 257.524)" fill="#f3c5ad"/>
  </g>
</svg>
